<svg xmlns="http://www.w3.org/2000/svg" version="1.1" xmlns:xlink="http://www.w3.org/1999/xlink" xmlns:svgjs="http://svgjs.dev/svgjs" viewBox="0 0 800 800" width="800" height="800"><g stroke-width="1.25" stroke="hsla(0, 0%, 51%, 1.00)" fill="none"><rect width="7.368421052631579" height="7.368421052631579" x="-3.6842105263157894" y="-3.6842105263157894" fill="hsla(0, 0%, 51%, 1.00)" stroke="none"></rect><rect width="7.368421052631579" height="7.368421052631579" x="40.760233918128655" y="-3.6842105263157894" fill="hsla(0, 69%, 43%, 1.00)" stroke="none"></rect><rect width="7.368421052631579" height="7.368421052631579" x="85.20467836257309" y="-3.6842105263157894" fill="hsla(0, 0%, 51%, 1.00)" stroke="none"></rect><rect width="7.368421052631579" height="7.368421052631579" x="129.64912280701753" y="-3.6842105263157894" fill="hsla(0, 69%, 43%, 1.00)" stroke="none"></rect><rect width="7.368421052631579" height="7.368421052631579" x="174.093567251462" y="-3.6842105263157894" fill="hsla(0, 0%, 51%, 1.00)" stroke="none"></rect><rect width="7.368421052631579" height="7.368421052631579" x="218.53801169590645" y="-3.6842105263157894" fill="hsla(0, 69%, 43%, 1.00)" stroke="none"></rect><rect width="7.368421052631579" height="7.368421052631579" x="262.9824561403509" y="-3.6842105263157894" fill="hsla(0, 0%, 51%, 1.00)" stroke="none"></rect><rect width="7.368421052631579" height="7.368421052631579" x="307.42690058479536" y="-3.6842105263157894" fill="hsla(0, 69%, 43%, 1.00)" stroke="none"></rect><rect width="7.368421052631579" height="7.368421052631579" x="351.8713450292398" y="-3.6842105263157894" fill="hsla(0, 0%, 51%, 1.00)" stroke="none"></rect><rect width="7.368421052631579" height="7.368421052631579" x="396.3157894736843" y="-3.6842105263157894" fill="hsla(0, 69%, 43%, 1.00)" stroke="none"></rect><rect width="7.368421052631579" height="7.368421052631579" x="440.76023391812873" y="-3.6842105263157894" fill="hsla(0, 0%, 51%, 1.00)" stroke="none"></rect><rect width="7.368421052631579" height="7.368421052631579" x="485.2046783625732" y="-3.6842105263157894" fill="hsla(0, 69%, 43%, 1.00)" stroke="none"></rect><rect width="7.368421052631579" height="7.368421052631579" x="529.6491228070175" y="-3.6842105263157894" fill="hsla(0, 0%, 51%, 1.00)" stroke="none"></rect><rect width="7.368421052631579" height="7.368421052631579" x="574.093567251462" y="-3.6842105263157894" fill="hsla(0, 69%, 43%, 1.00)" stroke="none"></rect><rect width="7.368421052631579" height="7.368421052631579" x="618.5380116959064" y="-3.6842105263157894" fill="hsla(0, 0%, 51%, 1.00)" stroke="none"></rect><rect width="7.368421052631579" height="7.368421052631579" x="662.9824561403509" y="-3.6842105263157894" fill="hsla(0, 69%, 43%, 1.00)" stroke="none"></rect><rect width="7.368421052631579" height="7.368421052631579" x="707.4269005847954" y="-3.6842105263157894" fill="hsla(0, 0%, 51%, 1.00)" stroke="none"></rect><rect width="7.368421052631579" height="7.368421052631579" x="751.8713450292398" y="-3.6842105263157894" fill="hsla(0, 69%, 43%, 1.00)" stroke="none"></rect><rect width="7.368421052631579" height="7.368421052631579" x="796.3157894736843" y="-3.6842105263157894" fill="hsla(0, 0%, 51%, 1.00)" stroke="none"></rect><rect width="7.368421052631579" height="7.368421052631579" x="-3.6842105263157894" y="40.760233918128655" fill="hsla(0, 69%, 43%, 1.00)" stroke="none"></rect><rect width="7.368421052631579" height="7.368421052631579" x="40.760233918128655" y="40.760233918128655" fill="hsla(0, 0%, 51%, 1.00)" stroke="none"></rect><rect width="7.368421052631579" height="7.368421052631579" x="85.20467836257309" y="40.760233918128655" fill="hsla(0, 69%, 43%, 1.00)" stroke="none"></rect><rect width="7.368421052631579" height="7.368421052631579" x="129.64912280701753" y="40.760233918128655" fill="hsla(0, 0%, 51%, 1.00)" stroke="none"></rect><rect width="7.368421052631579" height="7.368421052631579" x="174.093567251462" y="40.760233918128655" fill="hsla(0, 69%, 43%, 1.00)" stroke="none"></rect><rect width="7.368421052631579" height="7.368421052631579" x="218.53801169590645" y="40.760233918128655" fill="hsla(0, 0%, 51%, 1.00)" stroke="none"></rect><rect width="7.368421052631579" height="7.368421052631579" x="262.9824561403509" y="40.760233918128655" fill="hsla(0, 69%, 43%, 1.00)" stroke="none"></rect><rect width="7.368421052631579" height="7.368421052631579" x="307.42690058479536" y="40.760233918128655" fill="hsla(0, 0%, 51%, 1.00)" stroke="none"></rect><rect width="7.368421052631579" height="7.368421052631579" x="351.8713450292398" y="40.760233918128655" fill="hsla(0, 69%, 43%, 1.00)" stroke="none"></rect><rect width="7.368421052631579" height="7.368421052631579" x="396.3157894736843" y="40.760233918128655" fill="hsla(0, 0%, 51%, 1.00)" stroke="none"></rect><rect width="7.368421052631579" height="7.368421052631579" x="440.76023391812873" y="40.760233918128655" fill="hsla(0, 69%, 43%, 1.00)" stroke="none"></rect><rect width="7.368421052631579" height="7.368421052631579" x="485.2046783625732" y="40.760233918128655" fill="hsla(0, 0%, 51%, 1.00)" stroke="none"></rect><rect width="7.368421052631579" height="7.368421052631579" x="529.6491228070175" y="40.760233918128655" fill="hsla(0, 69%, 43%, 1.00)" stroke="none"></rect><rect width="7.368421052631579" height="7.368421052631579" x="574.093567251462" y="40.760233918128655" fill="hsla(0, 0%, 51%, 1.00)" stroke="none"></rect><rect width="7.368421052631579" height="7.368421052631579" x="618.5380116959064" y="40.760233918128655" fill="hsla(0, 69%, 43%, 1.00)" stroke="none"></rect><rect width="7.368421052631579" height="7.368421052631579" x="662.9824561403509" y="40.760233918128655" fill="hsla(0, 0%, 51%, 1.00)" stroke="none"></rect><rect width="7.368421052631579" height="7.368421052631579" x="707.4269005847954" y="40.760233918128655" fill="hsla(0, 69%, 43%, 1.00)" stroke="none"></rect><rect width="7.368421052631579" height="7.368421052631579" x="751.8713450292398" y="40.760233918128655" fill="hsla(0, 0%, 51%, 1.00)" stroke="none"></rect><rect width="7.368421052631579" height="7.368421052631579" x="796.3157894736843" y="40.760233918128655" fill="hsla(0, 69%, 43%, 1.00)" stroke="none"></rect><rect width="7.368421052631579" height="7.368421052631579" x="-3.6842105263157894" y="85.20467836257309" fill="hsla(0, 0%, 51%, 1.00)" stroke="none"></rect><rect width="7.368421052631579" height="7.368421052631579" x="40.760233918128655" y="85.20467836257309" fill="hsla(0, 69%, 43%, 1.00)" stroke="none"></rect><rect width="7.368421052631579" height="7.368421052631579" x="85.20467836257309" y="85.20467836257309" fill="hsla(0, 0%, 51%, 1.00)" stroke="none"></rect><rect width="7.368421052631579" height="7.368421052631579" x="129.64912280701753" y="85.20467836257309" fill="hsla(0, 69%, 43%, 1.00)" stroke="none"></rect><rect width="7.368421052631579" height="7.368421052631579" x="174.093567251462" y="85.20467836257309" fill="hsla(0, 0%, 51%, 1.00)" stroke="none"></rect><rect width="7.368421052631579" height="7.368421052631579" x="218.53801169590645" y="85.20467836257309" fill="hsla(0, 69%, 43%, 1.00)" stroke="none"></rect><rect width="7.368421052631579" height="7.368421052631579" x="262.9824561403509" y="85.20467836257309" fill="hsla(0, 0%, 51%, 1.00)" stroke="none"></rect><rect width="7.368421052631579" height="7.368421052631579" x="307.42690058479536" y="85.20467836257309" fill="hsla(0, 69%, 43%, 1.00)" stroke="none"></rect><rect width="7.368421052631579" height="7.368421052631579" x="351.8713450292398" y="85.20467836257309" fill="hsla(0, 0%, 51%, 1.00)" stroke="none"></rect><rect width="7.368421052631579" height="7.368421052631579" x="396.3157894736843" y="85.20467836257309" fill="hsla(0, 69%, 43%, 1.00)" stroke="none"></rect><rect width="7.368421052631579" height="7.368421052631579" x="440.76023391812873" y="85.20467836257309" fill="hsla(0, 0%, 51%, 1.00)" stroke="none"></rect><rect width="7.368421052631579" height="7.368421052631579" x="485.2046783625732" y="85.20467836257309" fill="hsla(0, 69%, 43%, 1.00)" stroke="none"></rect><rect width="7.368421052631579" height="7.368421052631579" x="529.6491228070175" y="85.20467836257309" fill="hsla(0, 0%, 51%, 1.00)" stroke="none"></rect><rect width="7.368421052631579" height="7.368421052631579" x="574.093567251462" y="85.20467836257309" fill="hsla(0, 69%, 43%, 1.00)" stroke="none"></rect><rect width="7.368421052631579" height="7.368421052631579" x="618.5380116959064" y="85.20467836257309" fill="hsla(0, 0%, 51%, 1.00)" stroke="none"></rect><rect width="7.368421052631579" height="7.368421052631579" x="662.9824561403509" y="85.20467836257309" fill="hsla(0, 69%, 43%, 1.00)" stroke="none"></rect><rect width="7.368421052631579" height="7.368421052631579" x="707.4269005847954" y="85.20467836257309" fill="hsla(0, 0%, 51%, 1.00)" stroke="none"></rect><rect width="7.368421052631579" height="7.368421052631579" x="751.8713450292398" y="85.20467836257309" fill="hsla(0, 69%, 43%, 1.00)" stroke="none"></rect><rect width="7.368421052631579" height="7.368421052631579" x="796.3157894736843" y="85.20467836257309" fill="hsla(0, 0%, 51%, 1.00)" stroke="none"></rect><rect width="7.368421052631579" height="7.368421052631579" x="-3.6842105263157894" y="129.64912280701753" fill="hsla(0, 69%, 43%, 1.00)" stroke="none"></rect><rect width="7.368421052631579" height="7.368421052631579" x="40.760233918128655" y="129.64912280701753" fill="hsla(0, 0%, 51%, 1.00)" stroke="none"></rect><rect width="7.368421052631579" height="7.368421052631579" x="85.20467836257309" y="129.64912280701753" fill="hsla(0, 69%, 43%, 1.00)" stroke="none"></rect><rect width="7.368421052631579" height="7.368421052631579" x="129.64912280701753" y="129.64912280701753" fill="hsla(0, 0%, 51%, 1.00)" stroke="none"></rect><rect width="7.368421052631579" height="7.368421052631579" x="174.093567251462" y="129.64912280701753" fill="hsla(0, 69%, 43%, 1.00)" stroke="none"></rect><rect width="7.368421052631579" height="7.368421052631579" x="218.53801169590645" y="129.64912280701753" fill="hsla(0, 0%, 51%, 1.00)" stroke="none"></rect><rect width="7.368421052631579" height="7.368421052631579" x="262.9824561403509" y="129.64912280701753" fill="hsla(0, 69%, 43%, 1.00)" stroke="none"></rect><rect width="7.368421052631579" height="7.368421052631579" x="307.42690058479536" y="129.64912280701753" fill="hsla(0, 0%, 51%, 1.00)" stroke="none"></rect><rect width="7.368421052631579" height="7.368421052631579" x="351.8713450292398" y="129.64912280701753" fill="hsla(0, 69%, 43%, 1.00)" stroke="none"></rect><rect width="7.368421052631579" height="7.368421052631579" x="396.3157894736843" y="129.64912280701753" fill="hsla(0, 0%, 51%, 1.00)" stroke="none"></rect><rect width="7.368421052631579" height="7.368421052631579" x="440.76023391812873" y="129.64912280701753" fill="hsla(0, 69%, 43%, 1.00)" stroke="none"></rect><rect width="7.368421052631579" height="7.368421052631579" x="485.2046783625732" y="129.64912280701753" fill="hsla(0, 0%, 51%, 1.00)" stroke="none"></rect><rect width="7.368421052631579" height="7.368421052631579" x="529.6491228070175" y="129.64912280701753" fill="hsla(0, 69%, 43%, 1.00)" stroke="none"></rect><rect width="7.368421052631579" height="7.368421052631579" x="574.093567251462" y="129.64912280701753" fill="hsla(0, 0%, 51%, 1.00)" stroke="none"></rect><rect width="7.368421052631579" height="7.368421052631579" x="618.5380116959064" y="129.64912280701753" fill="hsla(0, 69%, 43%, 1.00)" stroke="none"></rect><rect width="7.368421052631579" height="7.368421052631579" x="662.9824561403509" y="129.64912280701753" fill="hsla(0, 0%, 51%, 1.00)" stroke="none"></rect><rect width="7.368421052631579" height="7.368421052631579" x="707.4269005847954" y="129.64912280701753" fill="hsla(0, 69%, 43%, 1.00)" stroke="none"></rect><rect width="7.368421052631579" height="7.368421052631579" x="751.8713450292398" y="129.64912280701753" fill="hsla(0, 0%, 51%, 1.00)" stroke="none"></rect><rect width="7.368421052631579" height="7.368421052631579" x="796.3157894736843" y="129.64912280701753" fill="hsla(0, 69%, 43%, 1.00)" stroke="none"></rect><rect width="7.368421052631579" height="7.368421052631579" x="-3.6842105263157894" y="174.093567251462" fill="hsla(0, 0%, 51%, 1.00)" stroke="none"></rect><rect width="7.368421052631579" height="7.368421052631579" x="40.760233918128655" y="174.093567251462" fill="hsla(0, 69%, 43%, 1.00)" stroke="none"></rect><rect width="7.368421052631579" height="7.368421052631579" x="85.20467836257309" y="174.093567251462" fill="hsla(0, 0%, 51%, 1.00)" stroke="none"></rect><rect width="7.368421052631579" height="7.368421052631579" x="129.64912280701753" y="174.093567251462" fill="hsla(0, 69%, 43%, 1.00)" stroke="none"></rect><rect width="7.368421052631579" height="7.368421052631579" x="174.093567251462" y="174.093567251462" fill="hsla(0, 0%, 51%, 1.00)" stroke="none"></rect><rect width="7.368421052631579" height="7.368421052631579" x="218.53801169590645" y="174.093567251462" fill="hsla(0, 69%, 43%, 1.00)" stroke="none"></rect><rect width="7.368421052631579" height="7.368421052631579" x="262.9824561403509" y="174.093567251462" fill="hsla(0, 0%, 51%, 1.00)" stroke="none"></rect><rect width="7.368421052631579" height="7.368421052631579" x="307.42690058479536" y="174.093567251462" fill="hsla(0, 69%, 43%, 1.00)" stroke="none"></rect><rect width="7.368421052631579" height="7.368421052631579" x="351.8713450292398" y="174.093567251462" fill="hsla(0, 0%, 51%, 1.00)" stroke="none"></rect><rect width="7.368421052631579" height="7.368421052631579" x="396.3157894736843" y="174.093567251462" fill="hsla(0, 69%, 43%, 1.00)" stroke="none"></rect><rect width="7.368421052631579" height="7.368421052631579" x="440.76023391812873" y="174.093567251462" fill="hsla(0, 0%, 51%, 1.00)" stroke="none"></rect><rect width="7.368421052631579" height="7.368421052631579" x="485.2046783625732" y="174.093567251462" fill="hsla(0, 69%, 43%, 1.00)" stroke="none"></rect><rect width="7.368421052631579" height="7.368421052631579" x="529.6491228070175" y="174.093567251462" fill="hsla(0, 0%, 51%, 1.00)" stroke="none"></rect><rect width="7.368421052631579" height="7.368421052631579" x="574.093567251462" y="174.093567251462" fill="hsla(0, 69%, 43%, 1.00)" stroke="none"></rect><rect width="7.368421052631579" height="7.368421052631579" x="618.5380116959064" y="174.093567251462" fill="hsla(0, 0%, 51%, 1.00)" stroke="none"></rect><rect width="7.368421052631579" height="7.368421052631579" x="662.9824561403509" y="174.093567251462" fill="hsla(0, 69%, 43%, 1.00)" stroke="none"></rect><rect width="7.368421052631579" height="7.368421052631579" x="707.4269005847954" y="174.093567251462" fill="hsla(0, 0%, 51%, 1.00)" stroke="none"></rect><rect width="7.368421052631579" height="7.368421052631579" x="751.8713450292398" y="174.093567251462" fill="hsla(0, 69%, 43%, 1.00)" stroke="none"></rect><rect width="7.368421052631579" height="7.368421052631579" x="796.3157894736843" y="174.093567251462" fill="hsla(0, 0%, 51%, 1.00)" stroke="none"></rect><rect width="7.368421052631579" height="7.368421052631579" x="-3.6842105263157894" y="218.53801169590645" fill="hsla(0, 69%, 43%, 1.00)" stroke="none"></rect><rect width="7.368421052631579" height="7.368421052631579" x="40.760233918128655" y="218.53801169590645" fill="hsla(0, 0%, 51%, 1.00)" stroke="none"></rect><rect width="7.368421052631579" height="7.368421052631579" x="85.20467836257309" y="218.53801169590645" fill="hsla(0, 69%, 43%, 1.00)" stroke="none"></rect><rect width="7.368421052631579" height="7.368421052631579" x="129.64912280701753" y="218.53801169590645" fill="hsla(0, 0%, 51%, 1.00)" stroke="none"></rect><rect width="7.368421052631579" height="7.368421052631579" x="174.093567251462" y="218.53801169590645" fill="hsla(0, 69%, 43%, 1.00)" stroke="none"></rect><rect width="7.368421052631579" height="7.368421052631579" x="218.53801169590645" y="218.53801169590645" fill="hsla(0, 0%, 51%, 1.00)" stroke="none"></rect><rect width="7.368421052631579" height="7.368421052631579" x="262.9824561403509" y="218.53801169590645" fill="hsla(0, 69%, 43%, 1.00)" stroke="none"></rect><rect width="7.368421052631579" height="7.368421052631579" x="307.42690058479536" y="218.53801169590645" fill="hsla(0, 0%, 51%, 1.00)" stroke="none"></rect><rect width="7.368421052631579" height="7.368421052631579" x="351.8713450292398" y="218.53801169590645" fill="hsla(0, 69%, 43%, 1.00)" stroke="none"></rect><rect width="7.368421052631579" height="7.368421052631579" x="396.3157894736843" y="218.53801169590645" fill="hsla(0, 0%, 51%, 1.00)" stroke="none"></rect><rect width="7.368421052631579" height="7.368421052631579" x="440.76023391812873" y="218.53801169590645" fill="hsla(0, 69%, 43%, 1.00)" stroke="none"></rect><rect width="7.368421052631579" height="7.368421052631579" x="485.2046783625732" y="218.53801169590645" fill="hsla(0, 0%, 51%, 1.00)" stroke="none"></rect><rect width="7.368421052631579" height="7.368421052631579" x="529.6491228070175" y="218.53801169590645" fill="hsla(0, 69%, 43%, 1.00)" stroke="none"></rect><rect width="7.368421052631579" height="7.368421052631579" x="574.093567251462" y="218.53801169590645" fill="hsla(0, 0%, 51%, 1.00)" stroke="none"></rect><rect width="7.368421052631579" height="7.368421052631579" x="618.5380116959064" y="218.53801169590645" fill="hsla(0, 69%, 43%, 1.00)" stroke="none"></rect><rect width="7.368421052631579" height="7.368421052631579" x="662.9824561403509" y="218.53801169590645" fill="hsla(0, 0%, 51%, 1.00)" stroke="none"></rect><rect width="7.368421052631579" height="7.368421052631579" x="707.4269005847954" y="218.53801169590645" fill="hsla(0, 69%, 43%, 1.00)" stroke="none"></rect><rect width="7.368421052631579" height="7.368421052631579" x="751.8713450292398" y="218.53801169590645" fill="hsla(0, 0%, 51%, 1.00)" stroke="none"></rect><rect width="7.368421052631579" height="7.368421052631579" x="796.3157894736843" y="218.53801169590645" fill="hsla(0, 69%, 43%, 1.00)" stroke="none"></rect><rect width="7.368421052631579" height="7.368421052631579" x="-3.6842105263157894" y="262.9824561403509" fill="hsla(0, 0%, 51%, 1.00)" stroke="none"></rect><rect width="7.368421052631579" height="7.368421052631579" x="40.760233918128655" y="262.9824561403509" fill="hsla(0, 69%, 43%, 1.00)" stroke="none"></rect><rect width="7.368421052631579" height="7.368421052631579" x="85.20467836257309" y="262.9824561403509" fill="hsla(0, 0%, 51%, 1.00)" stroke="none"></rect><rect width="7.368421052631579" height="7.368421052631579" x="129.64912280701753" y="262.9824561403509" fill="hsla(0, 69%, 43%, 1.00)" stroke="none"></rect><rect width="7.368421052631579" height="7.368421052631579" x="174.093567251462" y="262.9824561403509" fill="hsla(0, 0%, 51%, 1.00)" stroke="none"></rect><rect width="7.368421052631579" height="7.368421052631579" x="218.53801169590645" y="262.9824561403509" fill="hsla(0, 69%, 43%, 1.00)" stroke="none"></rect><rect width="7.368421052631579" height="7.368421052631579" x="262.9824561403509" y="262.9824561403509" fill="hsla(0, 0%, 51%, 1.00)" stroke="none"></rect><rect width="7.368421052631579" height="7.368421052631579" x="307.42690058479536" y="262.9824561403509" fill="hsla(0, 69%, 43%, 1.00)" stroke="none"></rect><rect width="7.368421052631579" height="7.368421052631579" x="351.8713450292398" y="262.9824561403509" fill="hsla(0, 0%, 51%, 1.00)" stroke="none"></rect><rect width="7.368421052631579" height="7.368421052631579" x="396.3157894736843" y="262.9824561403509" fill="hsla(0, 69%, 43%, 1.00)" stroke="none"></rect><rect width="7.368421052631579" height="7.368421052631579" x="440.76023391812873" y="262.9824561403509" fill="hsla(0, 0%, 51%, 1.00)" stroke="none"></rect><rect width="7.368421052631579" height="7.368421052631579" x="485.2046783625732" y="262.9824561403509" fill="hsla(0, 69%, 43%, 1.00)" stroke="none"></rect><rect width="7.368421052631579" height="7.368421052631579" x="529.6491228070175" y="262.9824561403509" fill="hsla(0, 0%, 51%, 1.00)" stroke="none"></rect><rect width="7.368421052631579" height="7.368421052631579" x="574.093567251462" y="262.9824561403509" fill="hsla(0, 69%, 43%, 1.00)" stroke="none"></rect><rect width="7.368421052631579" height="7.368421052631579" x="618.5380116959064" y="262.9824561403509" fill="hsla(0, 0%, 51%, 1.00)" stroke="none"></rect><rect width="7.368421052631579" height="7.368421052631579" x="662.9824561403509" y="262.9824561403509" fill="hsla(0, 69%, 43%, 1.00)" stroke="none"></rect><rect width="7.368421052631579" height="7.368421052631579" x="707.4269005847954" y="262.9824561403509" fill="hsla(0, 0%, 51%, 1.00)" stroke="none"></rect><rect width="7.368421052631579" height="7.368421052631579" x="751.8713450292398" y="262.9824561403509" fill="hsla(0, 69%, 43%, 1.00)" stroke="none"></rect><rect width="7.368421052631579" height="7.368421052631579" x="796.3157894736843" y="262.9824561403509" fill="hsla(0, 0%, 51%, 1.00)" stroke="none"></rect><rect width="7.368421052631579" height="7.368421052631579" x="-3.6842105263157894" y="307.42690058479536" fill="hsla(0, 69%, 43%, 1.00)" stroke="none"></rect><rect width="7.368421052631579" height="7.368421052631579" x="40.760233918128655" y="307.42690058479536" fill="hsla(0, 0%, 51%, 1.00)" stroke="none"></rect><rect width="7.368421052631579" height="7.368421052631579" x="85.20467836257309" y="307.42690058479536" fill="hsla(0, 69%, 43%, 1.00)" stroke="none"></rect><rect width="7.368421052631579" height="7.368421052631579" x="129.64912280701753" y="307.42690058479536" fill="hsla(0, 0%, 51%, 1.00)" stroke="none"></rect><rect width="7.368421052631579" height="7.368421052631579" x="174.093567251462" y="307.42690058479536" fill="hsla(0, 69%, 43%, 1.00)" stroke="none"></rect><rect width="7.368421052631579" height="7.368421052631579" x="218.53801169590645" y="307.42690058479536" fill="hsla(0, 0%, 51%, 1.00)" stroke="none"></rect><rect width="7.368421052631579" height="7.368421052631579" x="262.9824561403509" y="307.42690058479536" fill="hsla(0, 69%, 43%, 1.00)" stroke="none"></rect><rect width="7.368421052631579" height="7.368421052631579" x="307.42690058479536" y="307.42690058479536" fill="hsla(0, 0%, 51%, 1.00)" stroke="none"></rect><rect width="7.368421052631579" height="7.368421052631579" x="351.8713450292398" y="307.42690058479536" fill="hsla(0, 69%, 43%, 1.00)" stroke="none"></rect><rect width="7.368421052631579" height="7.368421052631579" x="396.3157894736843" y="307.42690058479536" fill="hsla(0, 0%, 51%, 1.00)" stroke="none"></rect><rect width="7.368421052631579" height="7.368421052631579" x="440.76023391812873" y="307.42690058479536" fill="hsla(0, 69%, 43%, 1.00)" stroke="none"></rect><rect width="7.368421052631579" height="7.368421052631579" x="485.2046783625732" y="307.42690058479536" fill="hsla(0, 0%, 51%, 1.00)" stroke="none"></rect><rect width="7.368421052631579" height="7.368421052631579" x="529.6491228070175" y="307.42690058479536" fill="hsla(0, 69%, 43%, 1.00)" stroke="none"></rect><rect width="7.368421052631579" height="7.368421052631579" x="574.093567251462" y="307.42690058479536" fill="hsla(0, 0%, 51%, 1.00)" stroke="none"></rect><rect width="7.368421052631579" height="7.368421052631579" x="618.5380116959064" y="307.42690058479536" fill="hsla(0, 69%, 43%, 1.00)" stroke="none"></rect><rect width="7.368421052631579" height="7.368421052631579" x="662.9824561403509" y="307.42690058479536" fill="hsla(0, 0%, 51%, 1.00)" stroke="none"></rect><rect width="7.368421052631579" height="7.368421052631579" x="707.4269005847954" y="307.42690058479536" fill="hsla(0, 69%, 43%, 1.00)" stroke="none"></rect><rect width="7.368421052631579" height="7.368421052631579" x="751.8713450292398" y="307.42690058479536" fill="hsla(0, 0%, 51%, 1.00)" stroke="none"></rect><rect width="7.368421052631579" height="7.368421052631579" x="796.3157894736843" y="307.42690058479536" fill="hsla(0, 69%, 43%, 1.00)" stroke="none"></rect><rect width="7.368421052631579" height="7.368421052631579" x="-3.6842105263157894" y="351.8713450292398" fill="hsla(0, 0%, 51%, 1.00)" stroke="none"></rect><rect width="7.368421052631579" height="7.368421052631579" x="40.760233918128655" y="351.8713450292398" fill="hsla(0, 69%, 43%, 1.00)" stroke="none"></rect><rect width="7.368421052631579" height="7.368421052631579" x="85.20467836257309" y="351.8713450292398" fill="hsla(0, 0%, 51%, 1.00)" stroke="none"></rect><rect width="7.368421052631579" height="7.368421052631579" x="129.64912280701753" y="351.8713450292398" fill="hsla(0, 69%, 43%, 1.00)" stroke="none"></rect><rect width="7.368421052631579" height="7.368421052631579" x="174.093567251462" y="351.8713450292398" fill="hsla(0, 0%, 51%, 1.00)" stroke="none"></rect><rect width="7.368421052631579" height="7.368421052631579" x="218.53801169590645" y="351.8713450292398" fill="hsla(0, 69%, 43%, 1.00)" stroke="none"></rect><rect width="7.368421052631579" height="7.368421052631579" x="262.9824561403509" y="351.8713450292398" fill="hsla(0, 0%, 51%, 1.00)" stroke="none"></rect><rect width="7.368421052631579" height="7.368421052631579" x="307.42690058479536" y="351.8713450292398" fill="hsla(0, 69%, 43%, 1.00)" stroke="none"></rect><rect width="7.368421052631579" height="7.368421052631579" x="351.8713450292398" y="351.8713450292398" fill="hsla(0, 0%, 51%, 1.00)" stroke="none"></rect><rect width="7.368421052631579" height="7.368421052631579" x="396.3157894736843" y="351.8713450292398" fill="hsla(0, 69%, 43%, 1.00)" stroke="none"></rect><rect width="7.368421052631579" height="7.368421052631579" x="440.76023391812873" y="351.8713450292398" fill="hsla(0, 0%, 51%, 1.00)" stroke="none"></rect><rect width="7.368421052631579" height="7.368421052631579" x="485.2046783625732" y="351.8713450292398" fill="hsla(0, 69%, 43%, 1.00)" stroke="none"></rect><rect width="7.368421052631579" height="7.368421052631579" x="529.6491228070175" y="351.8713450292398" fill="hsla(0, 0%, 51%, 1.00)" stroke="none"></rect><rect width="7.368421052631579" height="7.368421052631579" x="574.093567251462" y="351.8713450292398" fill="hsla(0, 69%, 43%, 1.00)" stroke="none"></rect><rect width="7.368421052631579" height="7.368421052631579" x="618.5380116959064" y="351.8713450292398" fill="hsla(0, 0%, 51%, 1.00)" stroke="none"></rect><rect width="7.368421052631579" height="7.368421052631579" x="662.9824561403509" y="351.8713450292398" fill="hsla(0, 69%, 43%, 1.00)" stroke="none"></rect><rect width="7.368421052631579" height="7.368421052631579" x="707.4269005847954" y="351.8713450292398" fill="hsla(0, 0%, 51%, 1.00)" stroke="none"></rect><rect width="7.368421052631579" height="7.368421052631579" x="751.8713450292398" y="351.8713450292398" fill="hsla(0, 69%, 43%, 1.00)" stroke="none"></rect><rect width="7.368421052631579" height="7.368421052631579" x="796.3157894736843" y="351.8713450292398" fill="hsla(0, 0%, 51%, 1.00)" stroke="none"></rect><rect width="7.368421052631579" height="7.368421052631579" x="-3.6842105263157894" y="396.3157894736843" fill="hsla(0, 69%, 43%, 1.00)" stroke="none"></rect><rect width="7.368421052631579" height="7.368421052631579" x="40.760233918128655" y="396.3157894736843" fill="hsla(0, 0%, 51%, 1.00)" stroke="none"></rect><rect width="7.368421052631579" height="7.368421052631579" x="85.20467836257309" y="396.3157894736843" fill="hsla(0, 69%, 43%, 1.00)" stroke="none"></rect><rect width="7.368421052631579" height="7.368421052631579" x="129.64912280701753" y="396.3157894736843" fill="hsla(0, 0%, 51%, 1.00)" stroke="none"></rect><rect width="7.368421052631579" height="7.368421052631579" x="174.093567251462" y="396.3157894736843" fill="hsla(0, 69%, 43%, 1.00)" stroke="none"></rect><rect width="7.368421052631579" height="7.368421052631579" x="218.53801169590645" y="396.3157894736843" fill="hsla(0, 0%, 51%, 1.00)" stroke="none"></rect><rect width="7.368421052631579" height="7.368421052631579" x="262.9824561403509" y="396.3157894736843" fill="hsla(0, 69%, 43%, 1.00)" stroke="none"></rect><rect width="7.368421052631579" height="7.368421052631579" x="307.42690058479536" y="396.3157894736843" fill="hsla(0, 0%, 51%, 1.00)" stroke="none"></rect><rect width="7.368421052631579" height="7.368421052631579" x="351.8713450292398" y="396.3157894736843" fill="hsla(0, 69%, 43%, 1.00)" stroke="none"></rect><rect width="7.368421052631579" height="7.368421052631579" x="396.3157894736843" y="396.3157894736843" fill="hsla(0, 0%, 51%, 1.00)" stroke="none"></rect><rect width="7.368421052631579" height="7.368421052631579" x="440.76023391812873" y="396.3157894736843" fill="hsla(0, 69%, 43%, 1.00)" stroke="none"></rect><rect width="7.368421052631579" height="7.368421052631579" x="485.2046783625732" y="396.3157894736843" fill="hsla(0, 0%, 51%, 1.00)" stroke="none"></rect><rect width="7.368421052631579" height="7.368421052631579" x="529.6491228070175" y="396.3157894736843" fill="hsla(0, 69%, 43%, 1.00)" stroke="none"></rect><rect width="7.368421052631579" height="7.368421052631579" x="574.093567251462" y="396.3157894736843" fill="hsla(0, 0%, 51%, 1.00)" stroke="none"></rect><rect width="7.368421052631579" height="7.368421052631579" x="618.5380116959064" y="396.3157894736843" fill="hsla(0, 69%, 43%, 1.00)" stroke="none"></rect><rect width="7.368421052631579" height="7.368421052631579" x="662.9824561403509" y="396.3157894736843" fill="hsla(0, 0%, 51%, 1.00)" stroke="none"></rect><rect width="7.368421052631579" height="7.368421052631579" x="707.4269005847954" y="396.3157894736843" fill="hsla(0, 69%, 43%, 1.00)" stroke="none"></rect><rect width="7.368421052631579" height="7.368421052631579" x="751.8713450292398" y="396.3157894736843" fill="hsla(0, 0%, 51%, 1.00)" stroke="none"></rect><rect width="7.368421052631579" height="7.368421052631579" x="796.3157894736843" y="396.3157894736843" fill="hsla(0, 69%, 43%, 1.00)" stroke="none"></rect><rect width="7.368421052631579" height="7.368421052631579" x="-3.6842105263157894" y="440.76023391812873" fill="hsla(0, 0%, 51%, 1.00)" stroke="none"></rect><rect width="7.368421052631579" height="7.368421052631579" x="40.760233918128655" y="440.76023391812873" fill="hsla(0, 69%, 43%, 1.00)" stroke="none"></rect><rect width="7.368421052631579" height="7.368421052631579" x="85.20467836257309" y="440.76023391812873" fill="hsla(0, 0%, 51%, 1.00)" stroke="none"></rect><rect width="7.368421052631579" height="7.368421052631579" x="129.64912280701753" y="440.76023391812873" fill="hsla(0, 69%, 43%, 1.00)" stroke="none"></rect><rect width="7.368421052631579" height="7.368421052631579" x="174.093567251462" y="440.76023391812873" fill="hsla(0, 0%, 51%, 1.00)" stroke="none"></rect><rect width="7.368421052631579" height="7.368421052631579" x="218.53801169590645" y="440.76023391812873" fill="hsla(0, 69%, 43%, 1.00)" stroke="none"></rect><rect width="7.368421052631579" height="7.368421052631579" x="262.9824561403509" y="440.76023391812873" fill="hsla(0, 0%, 51%, 1.00)" stroke="none"></rect><rect width="7.368421052631579" height="7.368421052631579" x="307.42690058479536" y="440.76023391812873" fill="hsla(0, 69%, 43%, 1.00)" stroke="none"></rect><rect width="7.368421052631579" height="7.368421052631579" x="351.8713450292398" y="440.76023391812873" fill="hsla(0, 0%, 51%, 1.00)" stroke="none"></rect><rect width="7.368421052631579" height="7.368421052631579" x="396.3157894736843" y="440.76023391812873" fill="hsla(0, 69%, 43%, 1.00)" stroke="none"></rect><rect width="7.368421052631579" height="7.368421052631579" x="440.76023391812873" y="440.76023391812873" fill="hsla(0, 0%, 51%, 1.00)" stroke="none"></rect><rect width="7.368421052631579" height="7.368421052631579" x="485.2046783625732" y="440.76023391812873" fill="hsla(0, 69%, 43%, 1.00)" stroke="none"></rect><rect width="7.368421052631579" height="7.368421052631579" x="529.6491228070175" y="440.76023391812873" fill="hsla(0, 0%, 51%, 1.00)" stroke="none"></rect><rect width="7.368421052631579" height="7.368421052631579" x="574.093567251462" y="440.76023391812873" fill="hsla(0, 69%, 43%, 1.00)" stroke="none"></rect><rect width="7.368421052631579" height="7.368421052631579" x="618.5380116959064" y="440.76023391812873" fill="hsla(0, 0%, 51%, 1.00)" stroke="none"></rect><rect width="7.368421052631579" height="7.368421052631579" x="662.9824561403509" y="440.76023391812873" fill="hsla(0, 69%, 43%, 1.00)" stroke="none"></rect><rect width="7.368421052631579" height="7.368421052631579" x="707.4269005847954" y="440.76023391812873" fill="hsla(0, 0%, 51%, 1.00)" stroke="none"></rect><rect width="7.368421052631579" height="7.368421052631579" x="751.8713450292398" y="440.76023391812873" fill="hsla(0, 69%, 43%, 1.00)" stroke="none"></rect><rect width="7.368421052631579" height="7.368421052631579" x="796.3157894736843" y="440.76023391812873" fill="hsla(0, 0%, 51%, 1.00)" stroke="none"></rect><rect width="7.368421052631579" height="7.368421052631579" x="-3.6842105263157894" y="485.2046783625732" fill="hsla(0, 69%, 43%, 1.00)" stroke="none"></rect><rect width="7.368421052631579" height="7.368421052631579" x="40.760233918128655" y="485.2046783625732" fill="hsla(0, 0%, 51%, 1.00)" stroke="none"></rect><rect width="7.368421052631579" height="7.368421052631579" x="85.20467836257309" y="485.2046783625732" fill="hsla(0, 69%, 43%, 1.00)" stroke="none"></rect><rect width="7.368421052631579" height="7.368421052631579" x="129.64912280701753" y="485.2046783625732" fill="hsla(0, 0%, 51%, 1.00)" stroke="none"></rect><rect width="7.368421052631579" height="7.368421052631579" x="174.093567251462" y="485.2046783625732" fill="hsla(0, 69%, 43%, 1.00)" stroke="none"></rect><rect width="7.368421052631579" height="7.368421052631579" x="218.53801169590645" y="485.2046783625732" fill="hsla(0, 0%, 51%, 1.00)" stroke="none"></rect><rect width="7.368421052631579" height="7.368421052631579" x="262.9824561403509" y="485.2046783625732" fill="hsla(0, 69%, 43%, 1.00)" stroke="none"></rect><rect width="7.368421052631579" height="7.368421052631579" x="307.42690058479536" y="485.2046783625732" fill="hsla(0, 0%, 51%, 1.00)" stroke="none"></rect><rect width="7.368421052631579" height="7.368421052631579" x="351.8713450292398" y="485.2046783625732" fill="hsla(0, 69%, 43%, 1.00)" stroke="none"></rect><rect width="7.368421052631579" height="7.368421052631579" x="396.3157894736843" y="485.2046783625732" fill="hsla(0, 0%, 51%, 1.00)" stroke="none"></rect><rect width="7.368421052631579" height="7.368421052631579" x="440.76023391812873" y="485.2046783625732" fill="hsla(0, 69%, 43%, 1.00)" stroke="none"></rect><rect width="7.368421052631579" height="7.368421052631579" x="485.2046783625732" y="485.2046783625732" fill="hsla(0, 0%, 51%, 1.00)" stroke="none"></rect><rect width="7.368421052631579" height="7.368421052631579" x="529.6491228070175" y="485.2046783625732" fill="hsla(0, 69%, 43%, 1.00)" stroke="none"></rect><rect width="7.368421052631579" height="7.368421052631579" x="574.093567251462" y="485.2046783625732" fill="hsla(0, 0%, 51%, 1.00)" stroke="none"></rect><rect width="7.368421052631579" height="7.368421052631579" x="618.5380116959064" y="485.2046783625732" fill="hsla(0, 69%, 43%, 1.00)" stroke="none"></rect><rect width="7.368421052631579" height="7.368421052631579" x="662.9824561403509" y="485.2046783625732" fill="hsla(0, 0%, 51%, 1.00)" stroke="none"></rect><rect width="7.368421052631579" height="7.368421052631579" x="707.4269005847954" y="485.2046783625732" fill="hsla(0, 69%, 43%, 1.00)" stroke="none"></rect><rect width="7.368421052631579" height="7.368421052631579" x="751.8713450292398" y="485.2046783625732" fill="hsla(0, 0%, 51%, 1.00)" stroke="none"></rect><rect width="7.368421052631579" height="7.368421052631579" x="796.3157894736843" y="485.2046783625732" fill="hsla(0, 69%, 43%, 1.00)" stroke="none"></rect><rect width="7.368421052631579" height="7.368421052631579" x="-3.6842105263157894" y="529.6491228070175" fill="hsla(0, 0%, 51%, 1.00)" stroke="none"></rect><rect width="7.368421052631579" height="7.368421052631579" x="40.760233918128655" y="529.6491228070175" fill="hsla(0, 69%, 43%, 1.00)" stroke="none"></rect><rect width="7.368421052631579" height="7.368421052631579" x="85.20467836257309" y="529.6491228070175" fill="hsla(0, 0%, 51%, 1.00)" stroke="none"></rect><rect width="7.368421052631579" height="7.368421052631579" x="129.64912280701753" y="529.6491228070175" fill="hsla(0, 69%, 43%, 1.00)" stroke="none"></rect><rect width="7.368421052631579" height="7.368421052631579" x="174.093567251462" y="529.6491228070175" fill="hsla(0, 0%, 51%, 1.00)" stroke="none"></rect><rect width="7.368421052631579" height="7.368421052631579" x="218.53801169590645" y="529.6491228070175" fill="hsla(0, 69%, 43%, 1.00)" stroke="none"></rect><rect width="7.368421052631579" height="7.368421052631579" x="262.9824561403509" y="529.6491228070175" fill="hsla(0, 0%, 51%, 1.00)" stroke="none"></rect><rect width="7.368421052631579" height="7.368421052631579" x="307.42690058479536" y="529.6491228070175" fill="hsla(0, 69%, 43%, 1.00)" stroke="none"></rect><rect width="7.368421052631579" height="7.368421052631579" x="351.8713450292398" y="529.6491228070175" fill="hsla(0, 0%, 51%, 1.00)" stroke="none"></rect><rect width="7.368421052631579" height="7.368421052631579" x="396.3157894736843" y="529.6491228070175" fill="hsla(0, 69%, 43%, 1.00)" stroke="none"></rect><rect width="7.368421052631579" height="7.368421052631579" x="440.76023391812873" y="529.6491228070175" fill="hsla(0, 0%, 51%, 1.00)" stroke="none"></rect><rect width="7.368421052631579" height="7.368421052631579" x="485.2046783625732" y="529.6491228070175" fill="hsla(0, 69%, 43%, 1.00)" stroke="none"></rect><rect width="7.368421052631579" height="7.368421052631579" x="529.6491228070175" y="529.6491228070175" fill="hsla(0, 0%, 51%, 1.00)" stroke="none"></rect><rect width="7.368421052631579" height="7.368421052631579" x="574.093567251462" y="529.6491228070175" fill="hsla(0, 69%, 43%, 1.00)" stroke="none"></rect><rect width="7.368421052631579" height="7.368421052631579" x="618.5380116959064" y="529.6491228070175" fill="hsla(0, 0%, 51%, 1.00)" stroke="none"></rect><rect width="7.368421052631579" height="7.368421052631579" x="662.9824561403509" y="529.6491228070175" fill="hsla(0, 69%, 43%, 1.00)" stroke="none"></rect><rect width="7.368421052631579" height="7.368421052631579" x="707.4269005847954" y="529.6491228070175" fill="hsla(0, 0%, 51%, 1.00)" stroke="none"></rect><rect width="7.368421052631579" height="7.368421052631579" x="751.8713450292398" y="529.6491228070175" fill="hsla(0, 69%, 43%, 1.00)" stroke="none"></rect><rect width="7.368421052631579" height="7.368421052631579" x="796.3157894736843" y="529.6491228070175" fill="hsla(0, 0%, 51%, 1.00)" stroke="none"></rect><rect width="7.368421052631579" height="7.368421052631579" x="-3.6842105263157894" y="574.093567251462" fill="hsla(0, 69%, 43%, 1.00)" stroke="none"></rect><rect width="7.368421052631579" height="7.368421052631579" x="40.760233918128655" y="574.093567251462" fill="hsla(0, 0%, 51%, 1.00)" stroke="none"></rect><rect width="7.368421052631579" height="7.368421052631579" x="85.20467836257309" y="574.093567251462" fill="hsla(0, 69%, 43%, 1.00)" stroke="none"></rect><rect width="7.368421052631579" height="7.368421052631579" x="129.64912280701753" y="574.093567251462" fill="hsla(0, 0%, 51%, 1.00)" stroke="none"></rect><rect width="7.368421052631579" height="7.368421052631579" x="174.093567251462" y="574.093567251462" fill="hsla(0, 69%, 43%, 1.00)" stroke="none"></rect><rect width="7.368421052631579" height="7.368421052631579" x="218.53801169590645" y="574.093567251462" fill="hsla(0, 0%, 51%, 1.00)" stroke="none"></rect><rect width="7.368421052631579" height="7.368421052631579" x="262.9824561403509" y="574.093567251462" fill="hsla(0, 69%, 43%, 1.00)" stroke="none"></rect><rect width="7.368421052631579" height="7.368421052631579" x="307.42690058479536" y="574.093567251462" fill="hsla(0, 0%, 51%, 1.00)" stroke="none"></rect><rect width="7.368421052631579" height="7.368421052631579" x="351.8713450292398" y="574.093567251462" fill="hsla(0, 69%, 43%, 1.00)" stroke="none"></rect><rect width="7.368421052631579" height="7.368421052631579" x="396.3157894736843" y="574.093567251462" fill="hsla(0, 0%, 51%, 1.00)" stroke="none"></rect><rect width="7.368421052631579" height="7.368421052631579" x="440.76023391812873" y="574.093567251462" fill="hsla(0, 69%, 43%, 1.00)" stroke="none"></rect><rect width="7.368421052631579" height="7.368421052631579" x="485.2046783625732" y="574.093567251462" fill="hsla(0, 0%, 51%, 1.00)" stroke="none"></rect><rect width="7.368421052631579" height="7.368421052631579" x="529.6491228070175" y="574.093567251462" fill="hsla(0, 69%, 43%, 1.00)" stroke="none"></rect><rect width="7.368421052631579" height="7.368421052631579" x="574.093567251462" y="574.093567251462" fill="hsla(0, 0%, 51%, 1.00)" stroke="none"></rect><rect width="7.368421052631579" height="7.368421052631579" x="618.5380116959064" y="574.093567251462" fill="hsla(0, 69%, 43%, 1.00)" stroke="none"></rect><rect width="7.368421052631579" height="7.368421052631579" x="662.9824561403509" y="574.093567251462" fill="hsla(0, 0%, 51%, 1.00)" stroke="none"></rect><rect width="7.368421052631579" height="7.368421052631579" x="707.4269005847954" y="574.093567251462" fill="hsla(0, 69%, 43%, 1.00)" stroke="none"></rect><rect width="7.368421052631579" height="7.368421052631579" x="751.8713450292398" y="574.093567251462" fill="hsla(0, 0%, 51%, 1.00)" stroke="none"></rect><rect width="7.368421052631579" height="7.368421052631579" x="796.3157894736843" y="574.093567251462" fill="hsla(0, 69%, 43%, 1.00)" stroke="none"></rect><rect width="7.368421052631579" height="7.368421052631579" x="-3.6842105263157894" y="618.5380116959064" fill="hsla(0, 0%, 51%, 1.00)" stroke="none"></rect><rect width="7.368421052631579" height="7.368421052631579" x="40.760233918128655" y="618.5380116959064" fill="hsla(0, 69%, 43%, 1.00)" stroke="none"></rect><rect width="7.368421052631579" height="7.368421052631579" x="85.20467836257309" y="618.5380116959064" fill="hsla(0, 0%, 51%, 1.00)" stroke="none"></rect><rect width="7.368421052631579" height="7.368421052631579" x="129.64912280701753" y="618.5380116959064" fill="hsla(0, 69%, 43%, 1.00)" stroke="none"></rect><rect width="7.368421052631579" height="7.368421052631579" x="174.093567251462" y="618.5380116959064" fill="hsla(0, 0%, 51%, 1.00)" stroke="none"></rect><rect width="7.368421052631579" height="7.368421052631579" x="218.53801169590645" y="618.5380116959064" fill="hsla(0, 69%, 43%, 1.00)" stroke="none"></rect><rect width="7.368421052631579" height="7.368421052631579" x="262.9824561403509" y="618.5380116959064" fill="hsla(0, 0%, 51%, 1.00)" stroke="none"></rect><rect width="7.368421052631579" height="7.368421052631579" x="307.42690058479536" y="618.5380116959064" fill="hsla(0, 69%, 43%, 1.00)" stroke="none"></rect><rect width="7.368421052631579" height="7.368421052631579" x="351.8713450292398" y="618.5380116959064" fill="hsla(0, 0%, 51%, 1.00)" stroke="none"></rect><rect width="7.368421052631579" height="7.368421052631579" x="396.3157894736843" y="618.5380116959064" fill="hsla(0, 69%, 43%, 1.00)" stroke="none"></rect><rect width="7.368421052631579" height="7.368421052631579" x="440.76023391812873" y="618.5380116959064" fill="hsla(0, 0%, 51%, 1.00)" stroke="none"></rect><rect width="7.368421052631579" height="7.368421052631579" x="485.2046783625732" y="618.5380116959064" fill="hsla(0, 69%, 43%, 1.00)" stroke="none"></rect><rect width="7.368421052631579" height="7.368421052631579" x="529.6491228070175" y="618.5380116959064" fill="hsla(0, 0%, 51%, 1.00)" stroke="none"></rect><rect width="7.368421052631579" height="7.368421052631579" x="574.093567251462" y="618.5380116959064" fill="hsla(0, 69%, 43%, 1.00)" stroke="none"></rect><rect width="7.368421052631579" height="7.368421052631579" x="618.5380116959064" y="618.5380116959064" fill="hsla(0, 0%, 51%, 1.00)" stroke="none"></rect><rect width="7.368421052631579" height="7.368421052631579" x="662.9824561403509" y="618.5380116959064" fill="hsla(0, 69%, 43%, 1.00)" stroke="none"></rect><rect width="7.368421052631579" height="7.368421052631579" x="707.4269005847954" y="618.5380116959064" fill="hsla(0, 0%, 51%, 1.00)" stroke="none"></rect><rect width="7.368421052631579" height="7.368421052631579" x="751.8713450292398" y="618.5380116959064" fill="hsla(0, 69%, 43%, 1.00)" stroke="none"></rect><rect width="7.368421052631579" height="7.368421052631579" x="796.3157894736843" y="618.5380116959064" fill="hsla(0, 0%, 51%, 1.00)" stroke="none"></rect><rect width="7.368421052631579" height="7.368421052631579" x="-3.6842105263157894" y="662.9824561403509" fill="hsla(0, 69%, 43%, 1.00)" stroke="none"></rect><rect width="7.368421052631579" height="7.368421052631579" x="40.760233918128655" y="662.9824561403509" fill="hsla(0, 0%, 51%, 1.00)" stroke="none"></rect><rect width="7.368421052631579" height="7.368421052631579" x="85.20467836257309" y="662.9824561403509" fill="hsla(0, 69%, 43%, 1.00)" stroke="none"></rect><rect width="7.368421052631579" height="7.368421052631579" x="129.64912280701753" y="662.9824561403509" fill="hsla(0, 0%, 51%, 1.00)" stroke="none"></rect><rect width="7.368421052631579" height="7.368421052631579" x="174.093567251462" y="662.9824561403509" fill="hsla(0, 69%, 43%, 1.00)" stroke="none"></rect><rect width="7.368421052631579" height="7.368421052631579" x="218.53801169590645" y="662.9824561403509" fill="hsla(0, 0%, 51%, 1.00)" stroke="none"></rect><rect width="7.368421052631579" height="7.368421052631579" x="262.9824561403509" y="662.9824561403509" fill="hsla(0, 69%, 43%, 1.00)" stroke="none"></rect><rect width="7.368421052631579" height="7.368421052631579" x="307.42690058479536" y="662.9824561403509" fill="hsla(0, 0%, 51%, 1.00)" stroke="none"></rect><rect width="7.368421052631579" height="7.368421052631579" x="351.8713450292398" y="662.9824561403509" fill="hsla(0, 69%, 43%, 1.00)" stroke="none"></rect><rect width="7.368421052631579" height="7.368421052631579" x="396.3157894736843" y="662.9824561403509" fill="hsla(0, 0%, 51%, 1.00)" stroke="none"></rect><rect width="7.368421052631579" height="7.368421052631579" x="440.76023391812873" y="662.9824561403509" fill="hsla(0, 69%, 43%, 1.00)" stroke="none"></rect><rect width="7.368421052631579" height="7.368421052631579" x="485.2046783625732" y="662.9824561403509" fill="hsla(0, 0%, 51%, 1.00)" stroke="none"></rect><rect width="7.368421052631579" height="7.368421052631579" x="529.6491228070175" y="662.9824561403509" fill="hsla(0, 69%, 43%, 1.00)" stroke="none"></rect><rect width="7.368421052631579" height="7.368421052631579" x="574.093567251462" y="662.9824561403509" fill="hsla(0, 0%, 51%, 1.00)" stroke="none"></rect><rect width="7.368421052631579" height="7.368421052631579" x="618.5380116959064" y="662.9824561403509" fill="hsla(0, 69%, 43%, 1.00)" stroke="none"></rect><rect width="7.368421052631579" height="7.368421052631579" x="662.9824561403509" y="662.9824561403509" fill="hsla(0, 0%, 51%, 1.00)" stroke="none"></rect><rect width="7.368421052631579" height="7.368421052631579" x="707.4269005847954" y="662.9824561403509" fill="hsla(0, 69%, 43%, 1.00)" stroke="none"></rect><rect width="7.368421052631579" height="7.368421052631579" x="751.8713450292398" y="662.9824561403509" fill="hsla(0, 0%, 51%, 1.00)" stroke="none"></rect><rect width="7.368421052631579" height="7.368421052631579" x="796.3157894736843" y="662.9824561403509" fill="hsla(0, 69%, 43%, 1.00)" stroke="none"></rect><rect width="7.368421052631579" height="7.368421052631579" x="-3.6842105263157894" y="707.4269005847954" fill="hsla(0, 0%, 51%, 1.00)" stroke="none"></rect><rect width="7.368421052631579" height="7.368421052631579" x="40.760233918128655" y="707.4269005847954" fill="hsla(0, 69%, 43%, 1.00)" stroke="none"></rect><rect width="7.368421052631579" height="7.368421052631579" x="85.20467836257309" y="707.4269005847954" fill="hsla(0, 0%, 51%, 1.00)" stroke="none"></rect><rect width="7.368421052631579" height="7.368421052631579" x="129.64912280701753" y="707.4269005847954" fill="hsla(0, 69%, 43%, 1.00)" stroke="none"></rect><rect width="7.368421052631579" height="7.368421052631579" x="174.093567251462" y="707.4269005847954" fill="hsla(0, 0%, 51%, 1.00)" stroke="none"></rect><rect width="7.368421052631579" height="7.368421052631579" x="218.53801169590645" y="707.4269005847954" fill="hsla(0, 69%, 43%, 1.00)" stroke="none"></rect><rect width="7.368421052631579" height="7.368421052631579" x="262.9824561403509" y="707.4269005847954" fill="hsla(0, 0%, 51%, 1.00)" stroke="none"></rect><rect width="7.368421052631579" height="7.368421052631579" x="307.42690058479536" y="707.4269005847954" fill="hsla(0, 69%, 43%, 1.00)" stroke="none"></rect><rect width="7.368421052631579" height="7.368421052631579" x="351.8713450292398" y="707.4269005847954" fill="hsla(0, 0%, 51%, 1.00)" stroke="none"></rect><rect width="7.368421052631579" height="7.368421052631579" x="396.3157894736843" y="707.4269005847954" fill="hsla(0, 69%, 43%, 1.00)" stroke="none"></rect><rect width="7.368421052631579" height="7.368421052631579" x="440.76023391812873" y="707.4269005847954" fill="hsla(0, 0%, 51%, 1.00)" stroke="none"></rect><rect width="7.368421052631579" height="7.368421052631579" x="485.2046783625732" y="707.4269005847954" fill="hsla(0, 69%, 43%, 1.00)" stroke="none"></rect><rect width="7.368421052631579" height="7.368421052631579" x="529.6491228070175" y="707.4269005847954" fill="hsla(0, 0%, 51%, 1.00)" stroke="none"></rect><rect width="7.368421052631579" height="7.368421052631579" x="574.093567251462" y="707.4269005847954" fill="hsla(0, 69%, 43%, 1.00)" stroke="none"></rect><rect width="7.368421052631579" height="7.368421052631579" x="618.5380116959064" y="707.4269005847954" fill="hsla(0, 0%, 51%, 1.00)" stroke="none"></rect><rect width="7.368421052631579" height="7.368421052631579" x="662.9824561403509" y="707.4269005847954" fill="hsla(0, 69%, 43%, 1.00)" stroke="none"></rect><rect width="7.368421052631579" height="7.368421052631579" x="707.4269005847954" y="707.4269005847954" fill="hsla(0, 0%, 51%, 1.00)" stroke="none"></rect><rect width="7.368421052631579" height="7.368421052631579" x="751.8713450292398" y="707.4269005847954" fill="hsla(0, 69%, 43%, 1.00)" stroke="none"></rect><rect width="7.368421052631579" height="7.368421052631579" x="796.3157894736843" y="707.4269005847954" fill="hsla(0, 0%, 51%, 1.00)" stroke="none"></rect><rect width="7.368421052631579" height="7.368421052631579" x="-3.6842105263157894" y="751.8713450292398" fill="hsla(0, 69%, 43%, 1.00)" stroke="none"></rect><rect width="7.368421052631579" height="7.368421052631579" x="40.760233918128655" y="751.8713450292398" fill="hsla(0, 0%, 51%, 1.00)" stroke="none"></rect><rect width="7.368421052631579" height="7.368421052631579" x="85.20467836257309" y="751.8713450292398" fill="hsla(0, 69%, 43%, 1.00)" stroke="none"></rect><rect width="7.368421052631579" height="7.368421052631579" x="129.64912280701753" y="751.8713450292398" fill="hsla(0, 0%, 51%, 1.00)" stroke="none"></rect><rect width="7.368421052631579" height="7.368421052631579" x="174.093567251462" y="751.8713450292398" fill="hsla(0, 69%, 43%, 1.00)" stroke="none"></rect><rect width="7.368421052631579" height="7.368421052631579" x="218.53801169590645" y="751.8713450292398" fill="hsla(0, 0%, 51%, 1.00)" stroke="none"></rect><rect width="7.368421052631579" height="7.368421052631579" x="262.9824561403509" y="751.8713450292398" fill="hsla(0, 69%, 43%, 1.00)" stroke="none"></rect><rect width="7.368421052631579" height="7.368421052631579" x="307.42690058479536" y="751.8713450292398" fill="hsla(0, 0%, 51%, 1.00)" stroke="none"></rect><rect width="7.368421052631579" height="7.368421052631579" x="351.8713450292398" y="751.8713450292398" fill="hsla(0, 69%, 43%, 1.00)" stroke="none"></rect><rect width="7.368421052631579" height="7.368421052631579" x="396.3157894736843" y="751.8713450292398" fill="hsla(0, 0%, 51%, 1.00)" stroke="none"></rect><rect width="7.368421052631579" height="7.368421052631579" x="440.76023391812873" y="751.8713450292398" fill="hsla(0, 69%, 43%, 1.00)" stroke="none"></rect><rect width="7.368421052631579" height="7.368421052631579" x="485.2046783625732" y="751.8713450292398" fill="hsla(0, 0%, 51%, 1.00)" stroke="none"></rect><rect width="7.368421052631579" height="7.368421052631579" x="529.6491228070175" y="751.8713450292398" fill="hsla(0, 69%, 43%, 1.00)" stroke="none"></rect><rect width="7.368421052631579" height="7.368421052631579" x="574.093567251462" y="751.8713450292398" fill="hsla(0, 0%, 51%, 1.00)" stroke="none"></rect><rect width="7.368421052631579" height="7.368421052631579" x="618.5380116959064" y="751.8713450292398" fill="hsla(0, 69%, 43%, 1.00)" stroke="none"></rect><rect width="7.368421052631579" height="7.368421052631579" x="662.9824561403509" y="751.8713450292398" fill="hsla(0, 0%, 51%, 1.00)" stroke="none"></rect><rect width="7.368421052631579" height="7.368421052631579" x="707.4269005847954" y="751.8713450292398" fill="hsla(0, 69%, 43%, 1.00)" stroke="none"></rect><rect width="7.368421052631579" height="7.368421052631579" x="751.8713450292398" y="751.8713450292398" fill="hsla(0, 0%, 51%, 1.00)" stroke="none"></rect><rect width="7.368421052631579" height="7.368421052631579" x="796.3157894736843" y="751.8713450292398" fill="hsla(0, 69%, 43%, 1.00)" stroke="none"></rect><rect width="7.368421052631579" height="7.368421052631579" x="-3.6842105263157894" y="796.3157894736843" fill="hsla(0, 0%, 51%, 1.00)" stroke="none"></rect><rect width="7.368421052631579" height="7.368421052631579" x="40.760233918128655" y="796.3157894736843" fill="hsla(0, 69%, 43%, 1.00)" stroke="none"></rect><rect width="7.368421052631579" height="7.368421052631579" x="85.20467836257309" y="796.3157894736843" fill="hsla(0, 0%, 51%, 1.00)" stroke="none"></rect><rect width="7.368421052631579" height="7.368421052631579" x="129.64912280701753" y="796.3157894736843" fill="hsla(0, 69%, 43%, 1.00)" stroke="none"></rect><rect width="7.368421052631579" height="7.368421052631579" x="174.093567251462" y="796.3157894736843" fill="hsla(0, 0%, 51%, 1.00)" stroke="none"></rect><rect width="7.368421052631579" height="7.368421052631579" x="218.53801169590645" y="796.3157894736843" fill="hsla(0, 69%, 43%, 1.00)" stroke="none"></rect><rect width="7.368421052631579" height="7.368421052631579" x="262.9824561403509" y="796.3157894736843" fill="hsla(0, 0%, 51%, 1.00)" stroke="none"></rect><rect width="7.368421052631579" height="7.368421052631579" x="307.42690058479536" y="796.3157894736843" fill="hsla(0, 69%, 43%, 1.00)" stroke="none"></rect><rect width="7.368421052631579" height="7.368421052631579" x="351.8713450292398" y="796.3157894736843" fill="hsla(0, 0%, 51%, 1.00)" stroke="none"></rect><rect width="7.368421052631579" height="7.368421052631579" x="396.3157894736843" y="796.3157894736843" fill="hsla(0, 69%, 43%, 1.00)" stroke="none"></rect><rect width="7.368421052631579" height="7.368421052631579" x="440.76023391812873" y="796.3157894736843" fill="hsla(0, 0%, 51%, 1.00)" stroke="none"></rect><rect width="7.368421052631579" height="7.368421052631579" x="485.2046783625732" y="796.3157894736843" fill="hsla(0, 69%, 43%, 1.00)" stroke="none"></rect><rect width="7.368421052631579" height="7.368421052631579" x="529.6491228070175" y="796.3157894736843" fill="hsla(0, 0%, 51%, 1.00)" stroke="none"></rect><rect width="7.368421052631579" height="7.368421052631579" x="574.093567251462" y="796.3157894736843" fill="hsla(0, 69%, 43%, 1.00)" stroke="none"></rect><rect width="7.368421052631579" height="7.368421052631579" x="618.5380116959064" y="796.3157894736843" fill="hsla(0, 0%, 51%, 1.00)" stroke="none"></rect><rect width="7.368421052631579" height="7.368421052631579" x="662.9824561403509" y="796.3157894736843" fill="hsla(0, 69%, 43%, 1.00)" stroke="none"></rect><rect width="7.368421052631579" height="7.368421052631579" x="707.4269005847954" y="796.3157894736843" fill="hsla(0, 0%, 51%, 1.00)" stroke="none"></rect><rect width="7.368421052631579" height="7.368421052631579" x="751.8713450292398" y="796.3157894736843" fill="hsla(0, 69%, 43%, 1.00)" stroke="none"></rect><rect width="7.368421052631579" height="7.368421052631579" x="796.3157894736843" y="796.3157894736843" fill="hsla(0, 0%, 51%, 1.00)" stroke="none"></rect></g></svg>