<svg xmlns="http://www.w3.org/2000/svg" version="1.1" xmlns:xlink="http://www.w3.org/1999/xlink" xmlns:svgjs="http://svgjs.dev/svgjs" viewBox="0 0 800 800"><defs><linearGradient x1="50%" y1="0%" x2="50%" y2="100%" id="vvvortex-grad"><stop stop-color="hsl(1, 100%, 50%)" stop-opacity="1" offset="0%"></stop><stop stop-color="hsl(0, 0%, 39%)" stop-opacity="1" offset="100%"></stop></linearGradient></defs><g stroke="url(#vvvortex-grad)" fill="none" stroke-linecap="square"><circle r="320" cx="400" cy="400" stroke-width="14" stroke-dasharray="45 27" stroke-dashoffset="25" transform="rotate(198, 400, 400)" opacity="0.05"></circle><circle r="304" cx="400" cy="400" stroke-width="13" stroke-dasharray="43 33" stroke-dashoffset="25" transform="rotate(355, 400, 400)" opacity="0.10"></circle><circle r="288" cx="400" cy="400" stroke-width="13" stroke-dasharray="13 34" stroke-dashoffset="25" transform="rotate(41, 400, 400)" opacity="0.15"></circle><circle r="272" cx="400" cy="400" stroke-width="13" stroke-dasharray="27 33" stroke-dashoffset="25" transform="rotate(157, 400, 400)" opacity="0.20"></circle><circle r="256" cx="400" cy="400" stroke-width="12" stroke-dasharray="30 47" stroke-dashoffset="25" transform="rotate(273, 400, 400)" opacity="0.25"></circle><circle r="240" cx="400" cy="400" stroke-width="12" stroke-dasharray="29 25" stroke-dashoffset="25" transform="rotate(294, 400, 400)" opacity="0.30"></circle><circle r="224" cx="400" cy="400" stroke-width="12" stroke-dasharray="49 26" stroke-dashoffset="25" transform="rotate(178, 400, 400)" opacity="0.35"></circle><circle r="208" cx="400" cy="400" stroke-width="11" stroke-dasharray="54 47" stroke-dashoffset="25" transform="rotate(145, 400, 400)" opacity="0.40"></circle><circle r="192" cx="400" cy="400" stroke-width="11" stroke-dasharray="13 44" stroke-dashoffset="25" transform="rotate(222, 400, 400)" opacity="0.45"></circle><circle r="176" cx="400" cy="400" stroke-width="11" stroke-dasharray="48 21" stroke-dashoffset="25" transform="rotate(350, 400, 400)" opacity="0.50"></circle><circle r="160" cx="400" cy="400" stroke-width="10" stroke-dasharray="12 35" stroke-dashoffset="25" transform="rotate(36, 400, 400)" opacity="0.55"></circle><circle r="144" cx="400" cy="400" stroke-width="10" stroke-dasharray="46 51" stroke-dashoffset="25" transform="rotate(344, 400, 400)" opacity="0.60"></circle><circle r="128" cx="400" cy="400" stroke-width="10" stroke-dasharray="53 54" stroke-dashoffset="25" transform="rotate(41, 400, 400)" opacity="0.65"></circle><circle r="112" cx="400" cy="400" stroke-width="9" stroke-dasharray="14 29" stroke-dashoffset="25" transform="rotate(51, 400, 400)" opacity="0.70"></circle><circle r="96" cx="400" cy="400" stroke-width="9" stroke-dasharray="43 24" stroke-dashoffset="25" transform="rotate(221, 400, 400)" opacity="0.75"></circle><circle r="80" cx="400" cy="400" stroke-width="9" stroke-dasharray="27 43" stroke-dashoffset="25" transform="rotate(7, 400, 400)" opacity="0.80"></circle><circle r="64" cx="400" cy="400" stroke-width="8" stroke-dasharray="15 22" stroke-dashoffset="25" transform="rotate(187, 400, 400)" opacity="0.85"></circle><circle r="48" cx="400" cy="400" stroke-width="8" stroke-dasharray="42 17" stroke-dashoffset="25" transform="rotate(323, 400, 400)" opacity="0.90"></circle><circle r="32" cx="400" cy="400" stroke-width="8" stroke-dasharray="42 34" stroke-dashoffset="25" transform="rotate(126, 400, 400)" opacity="0.95"></circle><circle r="16" cx="400" cy="400" stroke-width="8" stroke-dasharray="13 38" stroke-dashoffset="25" transform="rotate(280, 400, 400)" opacity="1.00"></circle></g></svg>